<svg width="140.382" height="95.85" viewBox="0 0 140.382 95.85" xmlns="http://www.w3.org/2000/svg"><g id="svgGroup" stroke-linecap="round" fill-rule="evenodd" font-size="9pt" stroke="#fff" stroke-width="0.25mm" fill="white" style="stroke:#fff;stroke-width:0.25mm;fill:white"><path d="M 115.772 86.72 L 98.389 86.72 L 98.389 0.782 L 124.757 0.782 Q 131.348 0.782 134.718 3.785 A 13.422 13.422 0 0 1 138.061 8.473 A 18.993 18.993 0 0 1 139.234 12.183 A 48.58 48.58 0 0 1 140.019 17.264 Q 140.291 19.888 140.359 22.845 A 87.332 87.332 0 0 1 140.382 24.854 A 45.299 45.299 0 0 1 140.19 29.164 Q 139.797 33.263 138.599 36.085 A 9.842 9.842 0 0 1 133.556 41.233 A 14.034 14.034 0 0 1 131.885 41.895 Q 135.938 42.725 137.574 45.924 Q 138.86 48.438 139.135 52.114 A 27.984 27.984 0 0 1 139.21 54.2 L 139.21 86.72 L 122.266 86.72 L 122.266 53.077 Q 122.266 49.317 120.728 48.414 A 5.063 5.063 0 0 0 119.583 47.938 Q 118.447 47.606 116.775 47.532 A 22.742 22.742 0 0 0 115.772 47.511 L 115.772 86.72 Z M 44.971 85.597 L 39.161 95.85 L 25.489 86.866 Q 23.145 87.501 20.655 87.501 Q 12.207 87.501 7.117 83.299 A 16.431 16.431 0 0 1 5.299 81.544 A 19.059 19.059 0 0 1 1.496 74.757 Q 0.561 71.928 0.211 68.496 A 42.719 42.719 0 0 1 0.001 64.161 L 0.001 22.608 A 36.108 36.108 0 0 1 0.532 16.201 Q 1.172 12.659 2.581 9.869 A 17.282 17.282 0 0 1 5.445 5.763 A 17.503 17.503 0 0 1 13.623 0.952 Q 16.372 0.179 19.651 0.034 A 34.922 34.922 0 0 1 21.192 0.001 A 29.413 29.413 0 0 1 27.43 0.621 Q 31.361 1.475 34.303 3.502 A 16.51 16.51 0 0 1 36.939 5.763 Q 41.49 10.579 42.237 19.115 A 40.115 40.115 0 0 1 42.384 22.608 L 42.384 64.161 A 38.291 38.291 0 0 1 41.844 70.8 Q 40.776 76.856 37.598 80.909 L 44.971 85.597 Z M 73.829 86.72 L 50.538 86.72 L 50.538 0.782 L 73.829 0.782 Q 83.204 0.782 87.476 5.348 A 13.31 13.31 0 0 1 90.121 9.712 Q 91.637 13.643 91.741 19.534 A 49.769 49.769 0 0 1 91.749 20.411 L 91.749 24.171 Q 91.749 30.225 89.576 33.985 A 10.294 10.294 0 0 1 83.235 38.841 A 13.495 13.495 0 0 1 82.96 38.917 Q 88.687 40.361 90.69 45.623 A 13.22 13.22 0 0 1 90.748 45.777 Q 92.412 50.319 92.676 56.539 A 56.686 56.686 0 0 1 92.725 58.936 A 75.498 75.498 0 0 1 92.426 65.84 Q 92.114 69.237 91.475 72.194 A 42.699 42.699 0 0 1 91.163 73.536 A 21.86 21.86 0 0 1 89.403 78.294 A 16.076 16.076 0 0 1 85.499 83.253 A 13.462 13.462 0 0 1 80.757 85.784 Q 78.791 86.398 76.422 86.609 A 29.236 29.236 0 0 1 73.829 86.72 Z M 25.098 63.087 L 25.098 22.901 A 17.018 17.018 0 0 0 24.909 20.307 A 13.082 13.082 0 0 0 24.342 17.994 A 3.413 3.413 0 0 0 23.648 16.791 Q 22.758 15.821 21.094 15.821 A 4.626 4.626 0 0 0 19.837 15.98 Q 18.342 16.402 17.774 17.945 A 12.263 12.263 0 0 0 17.165 20.388 A 16.84 16.84 0 0 0 16.993 22.852 L 16.993 63.429 A 29.984 29.984 0 0 0 17.079 65.651 A 36.297 36.297 0 0 0 17.213 67.066 A 8.818 8.818 0 0 0 17.547 68.694 A 6.533 6.533 0 0 0 18.311 70.338 Q 19.19 71.681 21.192 71.681 A 3.93 3.93 0 0 0 22.237 71.55 A 2.616 2.616 0 0 0 23.853 70.313 A 7.054 7.054 0 0 0 24.528 68.735 Q 24.742 68.017 24.85 67.184 A 12.134 12.134 0 0 0 24.879 66.944 A 36.485 36.485 0 0 0 25.085 64.024 A 32.285 32.285 0 0 0 25.098 63.087 Z M 75.733 65.235 L 75.733 54.493 A 19.983 19.983 0 0 0 75.626 52.354 Q 75.39 50.167 74.635 48.707 A 3.726 3.726 0 0 0 72.059 46.751 Q 71.36 46.583 70.509 46.583 L 67.335 46.583 L 67.335 71.485 Q 68.22 71.566 68.807 71.58 A 9.846 9.846 0 0 0 69.044 71.583 A 10.184 10.184 0 0 0 71.645 71.281 Q 74.968 70.4 75.59 66.957 A 9.698 9.698 0 0 0 75.733 65.235 Z M 67.335 14.063 L 67.335 33.155 L 70.85 33.155 A 4.692 4.692 0 0 0 71.986 33.028 Q 72.771 32.832 73.278 32.333 A 2.766 2.766 0 0 0 73.927 31.3 A 10.388 10.388 0 0 0 74.417 29.399 Q 74.61 28.231 74.61 26.856 L 74.61 18.214 Q 74.61 14.644 71.901 14.145 A 5.261 5.261 0 0 0 70.948 14.063 L 67.335 14.063 Z M 115.87 16.7 L 115.87 32.618 L 120.02 32.618 A 2.741 2.741 0 0 0 122.519 31.024 Q 123.27 29.667 123.492 27.156 A 26.311 26.311 0 0 0 123.585 24.854 A 51.129 51.129 0 0 0 123.547 22.82 Q 123.414 19.483 122.803 18.263 A 2.683 2.683 0 0 0 120.863 16.798 A 4.682 4.682 0 0 0 119.874 16.7 L 115.87 16.7 Z" vector-effect="non-scaling-stroke"/></g></svg>